<?xml version="1.0" encoding="UTF-8" standalone="no"?>
<!-- Created with Inkscape (http://www.inkscape.org/) -->

<svg
   xmlns:dc="http://purl.org/dc/elements/1.1/"
   xmlns:cc="http://creativecommons.org/ns#"
   xmlns:rdf="http://www.w3.org/1999/02/22-rdf-syntax-ns#"
   xmlns:svg="http://www.w3.org/2000/svg"
   xmlns="http://www.w3.org/2000/svg"
   xmlns:sodipodi="http://sodipodi.sourceforge.net/DTD/sodipodi-0.dtd"
   xmlns:inkscape="http://www.inkscape.org/namespaces/inkscape"
   width="136.2749mm"
   height="90.13829mm"
   viewBox="0 0 136.2749 90.13829"
   version="1.1"
   id="svg8"
   inkscape:version="0.92.5 (2060ec1f9f, 2020-04-08)"
   sodipodi:docname="wireframe-holacontador.svg">
  <defs
     id="defs2" />
  <sodipodi:namedview
     id="base"
     pagecolor="#ffffff"
     bordercolor="#666666"
     borderopacity="1.0"
     inkscape:pageopacity="0.0"
     inkscape:pageshadow="2"
     inkscape:zoom="1.4"
     inkscape:cx="81.918999"
     inkscape:cy="109.39267"
     inkscape:document-units="mm"
     inkscape:current-layer="layer1"
     showgrid="false"
     inkscape:window-width="1920"
     inkscape:window-height="1021"
     inkscape:window-x="0"
     inkscape:window-y="27"
     inkscape:window-maximized="1"
     fit-margin-top="4"
     fit-margin-left="4"
     fit-margin-right="4"
     fit-margin-bottom="4" />
  <metadata
     id="metadata5">
    <rdf:RDF>
      <cc:Work
         rdf:about="">
        <dc:format>image/svg+xml</dc:format>
        <dc:type
           rdf:resource="http://purl.org/dc/dcmitype/StillImage" />
        <dc:title></dc:title>
      </cc:Work>
    </rdf:RDF>
  </metadata>
  <g
     inkscape:label="Capa 1"
     inkscape:groupmode="layer"
     id="layer1"
     transform="translate(-30.232115,-75.923104)">
    <path
       style="fill:#fafafa;fill-rule:evenodd;stroke:#000000;stroke-width:0.69999999;stroke-linecap:butt;stroke-linejoin:miter;stroke-miterlimit:4;stroke-dasharray:none;stroke-opacity:1;fill-opacity:1"
       d="m 37.230654,157.71577 c 1.133928,0.12599 2.265167,0.27914 3.401785,0.37798 0.313796,0.0273 0.630354,-0.0157 0.944941,0 2.222619,0.11113 3.617026,0.28457 5.858632,0.37797 0.503531,0.021 1.008456,-0.0229 1.511903,0 3.088259,0.14038 2.114328,0.2207 5.10268,0.37798 1.069451,0.0563 2.142969,-0.0486 3.212798,0 0.695095,0.0316 1.384409,0.14558 2.078868,0.18899 0.314368,0.0197 0.62996,0 0.944941,0 0.944941,0 1.889879,0 2.834819,0 0.69296,0 1.3867,-0.033 2.07887,0 0.63239,0.0301 1.25839,0.14388 1.88988,0.18899 0.25134,0.018 0.50484,-0.0209 0.75596,0 0.50613,0.0422 1.00513,0.1552 1.5119,0.18898 0.69142,0.0461 1.3883,-0.0575 2.07887,0 0.50613,0.0422 1.00514,0.15521 1.5119,0.18899 0.44,0.0293 0.88195,0 1.32292,0 0.69296,0 1.38591,0 2.07887,0 0.18899,0 0.37875,-0.0171 0.56696,0 2.34263,0.21297 0.70985,0.18545 3.2128,0.37798 0.25124,0.0193 0.5044,-0.0148 0.75595,0 1.6399,0.0965 3.27349,0.28685 4.91369,0.37798 0.3145,0.0175 0.62996,0 0.94494,0 0.75596,0 1.51191,0 2.26786,0 0.94494,0 1.88988,0 2.83482,0 0.69296,0 1.38592,0 2.07887,0 0.31498,0 0.6305,-0.0185 0.94494,0 3.25079,0.19122 1.39256,0.21792 4.91369,0.37797 0.503449,0.0229 1.008379,-0.021 1.511909,0 5.08579,0.21191 0.96887,0.15572 5.85863,0.37798 1.32155,0.0601 2.64667,-0.0472 3.96875,0 0.88363,0.0316 1.76264,0.14693 2.64583,0.18899 0.44048,0.021 0.88244,-0.021 1.32292,0 0.88319,0.0421 1.76225,0.15626 2.64583,0.18898 0.81839,0.0303 1.63882,-0.0389 2.45685,0 0.50731,0.0242 1.00453,0.16593 1.5119,0.18899 1.32155,0.0601 2.64584,0 3.96875,0 3.71677,0 7.43353,0 11.1503,0 1.88988,0 3.77976,0 5.66964,0 0.81895,0 1.6379,0 2.45685,0 0.37797,0 0.75854,0.0442 1.13392,0 0.6995,-0.0823 1.38047,-0.28688 2.07888,-0.37797 4.30526,-0.56156 0.68178,-0.019 3.40178,-0.18899 1.26374,-0.079 2.51636,-0.29375 3.77976,-0.37798 0.31428,-0.0209 0.62996,0 0.94494,0 0.56697,0 1.13393,0 1.70089,0 1.38592,0 2.77183,0 4.15774,0 1e-5,-4.16718 0.0483,0.63654 -0.18898,-4.34672 -0.024,-0.5034 0,-1.00794 0,-1.51191 0,-1.00793 0,-2.01587 0,-3.02381 0,-1.5749 0,-3.1498 0,-4.7247 0,-1.13393 0,-2.26786 0,-3.40178 0,-0.56697 0.0227,-1.13439 0,-1.7009 -0.0404,-1.00909 -0.15419,-2.0145 -0.18899,-3.02381 -0.0282,-0.81846 0,-1.63789 0,-2.45684 0,-1.76389 0,-3.52778 0,-5.29167 0,-4.47272 0,-8.94544 0,-13.41815 0,-12.47322 0,-24.946431 0,-37.419651 -2.48909,0.88834 -5.14949,0.75596 -7.74851,0.75596 -1.5749,0 -3.15062,-0.0508 -4.7247,0 -0.94655,0.0305 -1.88868,0.14785 -2.83483,0.18898 -0.50349,0.0219 -1.00793,0 -1.5119,0 -0.94494,0.063 -1.88886,0.14395 -2.83482,0.18899 -0.37755,0.018 -0.75596,0 -1.13393,0 -1.6379,0 -3.27579,0 -4.91369,0 -1.00794,0 -2.01713,0.0503 -3.02381,0 -0.56974,-0.0285 -1.13189,-0.14834 -1.70089,-0.18899 -0.31418,-0.0224 -0.63076,0.0224 -0.94494,0 -3.02215,-0.21586 -0.40793,-0.14423 -3.2128,-0.37797 -0.25112,-0.0209 -0.50397,0 -0.75595,0 -0.62996,0 -1.25993,0 -1.88989,0 -1.76388,0 -3.52777,0 -5.29166,0 -1.88988,0 -3.77976,0 -5.66965,0 -0.94494,0 -1.89106,-0.0472 -2.83482,0 -0.63231,0.0316 -1.25818,0.14687 -1.88988,0.18899 -0.31428,0.0209 -0.63212,-0.0368 -0.94494,0 -0.76113,0.0895 -1.50739,0.28291 -2.26786,0.37797 -0.25003,0.0313 -0.50471,-0.0193 -0.75595,0 -0.22258,0.0171 -2.90045,0.32119 -3.2128,0.37798 -2.162889,0.39325 2.47113,0.053 -2.078859,0.37797 -0.37702,0.0269 -0.75596,0 -1.13393,0 -0.69296,0 -1.38592,0 -2.07887,0 -2.39385,0 -4.7877,0 -7.18155,0 -7.30754,0 -14.61508,0 -21.92262,0 -6.614582,0 -13.229165,0 -19.843749,0 -3.023809,0 -6.047619,0 -9.071428,0 -1.007937,0 -2.015873,0 -3.02381,0 -0.163585,0 -0.839516,-0.0199 -0.755952,0.18899 0.149808,0.37452 0.62996,0.50397 0.94494,0.75595"
       id="path3621"
       inkscape:connector-curvature="0" />
    <text
       xml:space="preserve"
       style="font-style:italic;font-variant:normal;font-weight:normal;font-stretch:normal;font-size:12.69999981px;line-height:125%;font-family:'Lobster Two';-inkscape-font-specification:'Lobster Two, Italic';font-variant-ligatures:normal;font-variant-caps:normal;font-variant-numeric:normal;font-feature-settings:normal;text-align:start;letter-spacing:0px;word-spacing:0px;writing-mode:lr-tb;text-anchor:start;fill:#000000;fill-opacity:1;stroke:none;stroke-width:0.26458332px;stroke-linecap:butt;stroke-linejoin:miter;stroke-opacity:1"
       x="40.043407"
       y="95.457291"
       id="text903"><tspan
         sodipodi:role="line"
         id="tspan901"
         x="40.043407"
         y="95.457291"
         style="font-style:normal;font-variant:normal;font-weight:normal;font-stretch:normal;font-size:7.76111126px;font-family:Chalkduster;-inkscape-font-specification:'Chalkduster, Normal';font-variant-ligatures:normal;font-variant-caps:normal;font-variant-numeric:normal;font-feature-settings:normal;text-align:start;writing-mode:lr-tb;text-anchor:start;stroke-width:0.26458332px">¡Hola contador!</tspan></text>
    <path
       style="fill:none;fill-rule:evenodd;stroke:#000000;stroke-width:0.69999999;stroke-linecap:butt;stroke-linejoin:miter;stroke-miterlimit:4;stroke-dasharray:none;stroke-opacity:1"
       d="m 35.529762,83.254459 c 0,1.25992 0,2.51985 0,3.77976 0,0.37798 0.01886,0.75643 0,1.13393 -0.04415,0.88309 -0.153649,1.76235 -0.188989,2.64584 -0.0277,0.6924 0,1.38591 0,2.07887 0,0.94494 0,1.88988 0,2.83482 0,0.62996 0,1.25992 0,1.88988 0,0.31498 -0.02244,0.63076 0,0.94494 0.04064,0.569 0.161856,1.13108 0.188989,1.700891 0.05393,1.13265 0,2.26786 0,3.40179 0,0.69295 -0.04069,1.38711 0,2.07887 0.02249,0.38252 0.166486,0.7514 0.188986,1.13392 0.04069,0.69177 0,1.38592 0,2.07887 0,1.38592 0,2.77183 0,4.15774 0,0.69296 0,1.38592 0,2.07887 0,0.37798 0.02098,0.75654 0,1.13393 -0.04208,0.7574 -0.156038,1.51 -0.188986,2.26786 -0.04378,1.00698 0,2.01587 0,3.02381 0,0.75595 -0.03284,1.51261 0,2.26785 0.03022,0.69516 0.150392,1.38413 0.188986,2.07887 0.203015,3.65424 -0.411959,-1.92924 0.18899,3.77976 0.04011,0.38109 0.167732,0.75133 0.188989,1.13393 0.04193,0.75479 -0.03284,1.51262 0,2.26786 0.03022,0.69516 0.148127,1.38426 0.188986,2.07887 0.0222,0.37732 -0.02096,0.75653 0,1.13393 0.04208,0.7574 0.156038,1.51 0.18899,2.26785 0.0301,0.69231 0,1.38592 0,2.07887 0,1.13393 0,2.26786 0,3.40179 0,0.62996 -0.0419,1.26132 0,1.88988 0.02135,0.32051 0.125992,0.62996 0.188986,0.94494 0.063,0.69296 0.14813,1.38426 0.188989,2.07887 0.0222,0.37732 -0.02357,0.75669 0,1.13393 0.137364,2.19783 0.216734,1.49463 0.377976,3.59077 0.01932,0.25124 0,0.50397 0,0.75595 0,0.37798 0,0.75596 0,1.13393 0,0.69296 0,1.38592 0,2.07887"
       id="path3619"
       inkscape:connector-curvature="0" />
    <path
       style="fill:none;fill-rule:evenodd;stroke:#000000;stroke-width:0.69999999;stroke-linecap:butt;stroke-linejoin:miter;stroke-miterlimit:4;stroke-dasharray:none;stroke-opacity:1"
       d="m 34.395833,101.20833 c 4.472718,0 8.945435,0 13.418156,0 0.881943,0 1.763887,0 2.645833,0 0.503968,0 1.010436,-0.0502 1.511903,0 0.25845,0.0258 0.502399,0.13264 0.755954,0.18899 0.313569,0.0697 0.625317,0.15702 0.944939,0.18899 0.313417,0.0313 0.629962,0 0.94494,0 0.440974,0 0.881947,0 1.322917,0 1.385914,0 2.771825,0 4.157739,0 1.511904,0 3.023809,0 4.535715,0 0.566963,0 1.135597,0.0435 1.700893,0 0.258974,-0.0199 0.496977,-0.16907 0.755951,-0.18899 0.565293,-0.0435 1.134907,0.0333 1.700893,0 0.856665,0.14575 1.629875,-0.32629 2.456847,-0.37798 0.691604,-0.0432 1.385911,0 2.078868,0 1.763887,0 3.527777,0 5.291666,0 1.007936,0 2.015874,0 3.023809,0 0.692957,0 1.386872,0.0364 2.078869,0 0.507187,-0.0267 1.005768,-0.14681 1.511906,-0.18899 0.251113,-0.0209 0.503967,0 0.755951,0 0.944941,0 1.889882,0 2.834823,0 2.141865,0 4.283728,0 6.425594,0 0.566965,0 1.13393,0 1.700892,0 0.566965,0 1.134907,0.0333 1.700893,0 0.507015,-0.0298 1.005771,-0.1468 1.511906,-0.18898 0.25111,-0.0209 0.50471,0.0193 0.75595,0 1.07514,-0.0827 2.13766,-0.29528 3.2128,-0.37798 0.87676,-0.0674 1.76908,0.0674 2.64583,0 0.25898,-0.0199 0.50397,-0.12599 0.75595,-0.18899 0.62997,0 1.2608,0.0331 1.88989,0 0.89682,0.35014 1.63112,-0.309162 2.45684,-0.377973 0.50223,-0.04185 1.00794,0 1.51191,0 0.88194,0 1.76389,0 2.64583,0 2.83482,0 5.66964,0 8.50446,0 0.81895,0 1.6379,0 2.45685,0 0.50397,0 1.00922,0.03591 1.5119,0 0.38222,-0.0273 0.75309,-0.146671 1.13393,-0.188989 0.18783,-0.02087 0.37798,0 0.56697,0 0.31498,0 0.62996,0 0.94494,0 0.88194,0 1.76388,0 2.64583,0 2.58284,0 5.16568,0 7.74851,0 6.42007,0 14.2354,0 20.03274,0"
       id="path3625"
       inkscape:connector-curvature="0" />
    <path
       style="fill:none;fill-rule:evenodd;stroke:#000000;stroke-width:0.69999999;stroke-linecap:butt;stroke-linejoin:miter;stroke-miterlimit:4;stroke-dasharray:none;stroke-opacity:1"
       d="m 157.03724,87.412382 c -0.79964,0.539791 -1.30487,1.432246 -1.97486,2.126764 -0.24949,0.25862 -0.50898,0.504494 -0.768,0.750621 -0.1799,0.170942 -0.37235,0.324583 -0.54858,0.500417 -0.11677,0.116505 -0.21943,0.250207 -0.32914,0.37531 -0.36572,0.417013 -0.73143,0.834025 -1.09715,1.251038 -0.0731,0.0834 -0.13996,0.174698 -0.21943,0.250206 -0.14047,0.133484 -0.29838,0.241829 -0.43886,0.375313 -0.11919,0.113262 -0.20004,0.27717 -0.32914,0.375311 -0.068,0.05173 -0.15138,0.07338 -0.21943,0.125103 -0.0861,0.06543 -0.13667,0.179437 -0.21943,0.250207 -1.08798,0.930441 0.21721,-0.206819 -0.54857,0.375312 -0.043,0.03271 -0.0607,0.106454 -0.10972,0.125104 -0.0694,0.02637 -0.15003,-0.02637 -0.21942,0 -0.40673,0.15459 0.13373,0.125103 -0.21944,0.125103"
       id="path3627"
       inkscape:connector-curvature="0" />
    <path
       style="fill:none;fill-rule:evenodd;stroke:#000000;stroke-width:0.69999999;stroke-linecap:butt;stroke-linejoin:miter;stroke-miterlimit:4;stroke-dasharray:none;stroke-opacity:1"
       d="m 148.91836,86.66176 c 0.21964,0.333922 0.37176,0.614352 0.65829,0.875727 0.0639,0.05825 0.15139,0.07338 0.21942,0.125102 0.15215,0.115659 0.29258,0.250207 0.43886,0.375312 0.14629,0.125105 0.29608,0.245058 0.43886,0.375311 0.0404,0.03684 0.0693,0.08826 0.10971,0.125103 0.14279,0.130254 0.30125,0.23801 0.43887,0.375312 0.15569,0.15534 0.29257,0.33361 0.43885,0.500415 0.0366,0.0417 0.0684,0.08972 0.10972,0.125104 0.10549,0.09021 0.22618,0.15628 0.32914,0.250207 0.0279,0.02539 0.38544,0.469961 0.43886,0.500414 0.0327,0.01865 0.0839,-0.02948 0.10971,0 0.0259,0.02949 -0.0258,0.09562 0,0.125105 0.0259,0.02948 0.0839,-0.02949 0.10972,0 0.0258,0.02948 -0.0164,0.08781 0,0.125103 0.0231,0.05275 0.0731,0.0834 0.10972,0.125104 0.0731,0.0834 0.14628,0.166805 0.21942,0.250207 0.0731,0.0834 0.14629,0.166805 0.21943,0.250208 0.0366,0.0417 0.0667,0.09239 0.10972,0.125104 0.068,0.05173 0.15139,0.07338 0.21943,0.125103 0.12659,0.09623 0.20255,0.279078 0.32914,0.375312 0.0204,0.01554 0.43183,0.242191 0.43886,0.250207 0.0578,0.06594 0.0519,0.184271 0.10971,0.250207 0.11102,0.126586 0.44146,0.176925 0.54858,0.250209 0.18286,0.125102 0.18286,0.250207 0.32914,0.37531 0.10549,0.09021 0.21607,0.172851 0.32915,0.250207 0.79549,0.453539 -0.17348,-0.13187 0.32914,0.250209 0.0204,0.01554 0.43183,0.242191 0.43886,0.250207 0.0258,0.02949 -0.0258,0.09562 0,0.125103 0.0258,0.02948 0.0731,0 0.10972,0 0.13392,0 0.25299,-0.04855 0.32914,0.125104 0.0164,0.0373 0,0.0834 0,0.125103"
       id="path3629"
       inkscape:connector-curvature="0" />
    <g
       id="g834"
       transform="matrix(1,0,0,0.5455469,109.80208,62.792958)"
       style="stroke-width:0.94772422;stroke-miterlimit:4;stroke-dasharray:none">
      <path
         inkscape:connector-curvature="0"
         id="path828"
         d="m -36.291693,130.34264 c -0.251352,1.75946 -0.18899,0.87747 -0.18899,2.64584 0,0.18899 0.02344,0.37943 0,0.56696 -0.03984,0.31874 -0.159906,0.62504 -0.188986,0.94494 -0.04532,0.49855 0,1.90113 0,2.45685 0,2.14186 0,4.28373 0,6.42559 0,0.69296 0,1.38591 0,2.07887 0,0.37798 0.04688,0.75887 0,1.13393 -0.03222,0.25773 -0.146288,0.49975 -0.188989,0.75595 -0.02072,0.12428 0,0.25199 0,0.37798 0,0.25198 0,0.50397 0,0.75595 0,0.75595 0,1.51191 0,2.26786 0,0.44097 0.0547,0.88535 0,1.32291 -0.02471,0.19768 -0.166989,0.36898 -0.188987,0.56697 -0.04174,0.37566 0,0.75595 0,1.13393 0,0.37797 0,0.75595 0,1.13393 0,2.14186 0,4.28373 0,6.42559 0,0.37798 0,0.75595 0,1.13393 0,0.0851 -0.02876,0.50945 0,0.56696 0.02461,0.0492 0.247634,0.31933 0.377976,0.18899 0.04454,-0.0445 0,-0.12599 0,-0.18899 0,-0.063 0,-0.12599 0,-0.18898 0.440972,0.18899 0.867772,0.41525 1.322915,0.56696 0.119527,0.0398 0.25325,-0.0178 0.377976,0 0.31799,0.0454 0.636082,0.10074 0.944941,0.18899 0.135443,0.0387 0.238528,0.16907 0.377976,0.18899 0.311814,0.0445 0.631523,-0.0313 0.94494,0 0.319624,0.032 0.626951,0.14356 0.944941,0.18899 0.124726,0.0178 0.25325,-0.0178 0.377976,0 0.31799,0.0454 0.625687,0.15351 0.94494,0.18898 0.250443,0.0278 0.503969,0 0.755953,0 0.818948,0 1.637897,0 2.456845,0 0.31498,0 0.631524,-0.0313 0.944941,0 0.381288,0.0381 0.75264,0.15086 1.133928,0.18899 0.250734,0.0251 0.503968,0 0.755952,0 3.271587,0 0.131001,0.0626 3.401786,-0.18899 0.251242,-0.0193 0.504609,0.018 0.755953,0 5.769304,-0.41209 -1.723429,0.0308 3.590773,-0.37797 0.251242,-0.0193 0.504839,0.0209 0.755953,0 0.506136,-0.0422 1.007493,-0.12965 1.511905,-0.18899 0.566546,-0.0666 1.137072,-0.10225 1.700892,-0.18899 0.256719,-0.0395 0.499234,-0.14949 0.755953,-0.18899 0.56382,-0.0867 1.138201,-0.0952 1.700893,-0.18899 0.1965,-0.0327 0.3716215,-0.14991 0.5669639,-0.18898 0.4367989,-0.0874 0.8826473,-0.12126 1.3229167,-0.18899 0.378734,-0.0583 0.7530823,-0.14667 1.1339285,-0.18899 0.1878322,-0.0209 0.3794356,0.0234 0.5669643,0 0.8801795,-0.11002 0.8916281,-0.21612 1.7008929,-0.37798 0.061773,-0.0123 0.127873,0.0153 0.1889881,0 0.193263,-0.0483 0.3737013,-0.14067 0.5669643,-0.18898 0.1642729,-0.0411 0.5690838,0 0.7559523,0 0.5039683,0 1.0079366,0 1.5119048,0 0.8819445,0 1.7638889,0 2.64583334,0 0.31498016,0 0.62996036,0 0.94494046,0 0.1259921,0 0.2544308,0.0247 0.3779762,0 0.1953424,-0.0391 0.3737013,-0.14068 0.5669643,-0.18899 0.061115,-0.0153 0.1259921,0 0.1889881,0 0.1259921,0 0.2519841,0 0.3779762,0 0.5669643,0 1.1339286,0 1.7008928,0 0.1889881,0 0.3816462,0.0371 0.5669643,0 0.138128,-0.0276 0.2519842,-0.12599 0.3779762,-0.18899 0.3149802,-0.063 0.6256871,-0.15352 0.9449405,-0.18899 2.7239673,-0.30266 -2.4370614,0.64129 2.2678571,-0.18899 0.5020372,-0.0886 1.9678477,-0.46265 2.6458337,-0.56696 0.501984,-0.0772 1.00992,-0.11176 1.511904,-0.18899 0.317483,-0.0488 0.626951,-0.14356 0.944941,-0.18899 0.124726,-0.0178 0.251984,0 0.377976,0 0.377976,0 0.755952,0 1.133929,0 -0.251984,-0.50397 -0.563396,-0.98237 -0.755953,-1.5119 -0.06459,-0.17761 0,-0.37798 0,-0.56697 0,-0.37797 0,-0.75595 0,-1.13392 0,-1.88989 0,-3.77977 0,-5.66965 0,-2.01587 0,-4.03174 0,-6.04762 0,-0.56696 0,-1.13392 0,-1.70089 0,-0.25198 0,-0.50397 0,-0.75595 0,-0.12599 -0.02471,-0.25443 0,-0.37798 0.03907,-0.19534 0.156238,-0.37046 0.188988,-0.56696 0.03107,-0.18642 0,-0.37798 0,-0.56697 0,-0.37797 0,-0.75595 0,-1.13392 0,-0.18899 -0.03706,-0.38165 0,-0.56697 0.05525,-0.27625 0.322725,-0.4797 0.377977,-0.75595 0.02672,-0.1336 -0.04889,-0.98725 0,-1.13393 0.04454,-0.13363 0.154823,-0.24132 0.188988,-0.37798 0.03056,-0.12223 -0.03984,-0.25845 0,-0.37797 0.05634,-0.16904 0.298291,-0.21861 0.377976,-0.37798 0.718251,-1.4365 0.02792,-0.11168 0.188988,-0.75595 0.04832,-0.19326 0.140672,-0.3737 0.188988,-0.56697 0.03056,-0.12223 0,-0.25198 0,-0.37797 0,-0.25199 0,-0.50397 0,-0.75595 0,-0.063 -0.01992,-0.12923 0,-0.18899 0.04454,-0.13364 0.144443,-0.24434 0.188988,-0.37798 0.04074,-0.12222 0,-0.73858 0,-0.94494 0,-0.75595 0,-1.5119 0,-2.26786"
         style="fill:none;fill-rule:evenodd;stroke:#000000;stroke-width:0.94772422;stroke-linecap:butt;stroke-linejoin:miter;stroke-miterlimit:4;stroke-dasharray:none;stroke-opacity:1" />
      <path
         inkscape:connector-curvature="0"
         id="path830"
         d="m 16.624972,130.34264 c -0.566964,0.18899 -1.106915,0.50097 -1.700893,0.56697 -1.310196,0.14558 -3.252742,-0.0566 -4.724702,0 -1.1976956,0.0461 -2.3928156,0.15034 -3.5907735,0.18899 -0.7555595,0.0244 -1.5119048,0 -2.2678573,0 -1.7638889,0 -3.52777866,0 -5.29166577,0 -0.94494083,0 -1.88988163,0 -2.83482253,0 -0.566965,0 -1.1349064,0.0333 -1.7008924,0 -0.5070131,-0.0298 -1.0065359,-0.13845 -1.5119059,-0.18899 -1.3229167,-0.13229 1.3229166,0.33073 -1.3229167,0 -0.1976702,-0.0247 -0.3716205,-0.14992 -0.5669624,-0.18899 -0.1235472,-0.0247 -0.2584503,0.0398 -0.3779758,0 -0.084519,-0.0282 -0.1093046,-0.14915 -0.1889892,-0.18899 -0.1107228,-0.0554 -0.8056745,0.0348 -0.9449405,0 -0.136658,-0.0342 -0.238528,-0.16906 -0.377976,-0.18899 -0.311814,-0.0445 -0.62996,0 -0.944941,0 -0.818949,0 -1.639311,0.0481 -2.456844,0 -0.507016,-0.0298 -1.005769,-0.14681 -1.511906,-0.18898 -0.251113,-0.0209 -0.504838,0.0209 -0.755952,0 -1.012272,-0.0844 -2.011021,-0.30007 -3.023809,-0.37798 -0.314052,-0.0242 -0.629962,0 -0.944941,0 -1.511905,0 -3.023809,0 -4.535714,0 -0.314979,0 -0.633127,0.0445 -0.944941,0 -0.139446,-0.0199 -0.241319,-0.15482 -0.377976,-0.18899 -0.12223,-0.0306 -0.251984,0 -0.377976,0 -0.314981,0 -0.62996,0 -0.944941,0 -0.377976,0 -0.755951,0 -1.133927,0 -0.125992,0 -0.255746,-0.0306 -0.377976,0 -0.13666,0.0342 -0.241319,0.15482 -0.377978,0.18899 -0.183343,0.0458 -0.377976,0 -0.566963,0 -0.387249,0 -0.996556,-0.0544 -1.322917,0 -0.138948,0.0232 -0.251983,0.12599 -0.377975,0.18899 -0.125992,0.063 -0.241319,0.15482 -0.377979,0.18899 -0.147441,0.0369 -0.913347,0 -1.133927,0 -0.503968,0 -1.007936,0 -1.511906,0 -0.131448,0 -0.876594,-0.0342 -0.944938,0 -0.07968,0.0398 -0.109305,0.14914 -0.18899,0.18898 -0.05635,0.0282 -0.129225,-0.0199 -0.188989,0 -0.133633,0.0446 -0.24434,0.14445 -0.377976,0.18899 -0.119525,0.0398 -0.265284,-0.0563 -0.377975,0 -0.07969,0.0398 -0.109302,0.14915 -0.188987,0.18899 -0.05635,0.0282 -0.144444,-0.0445 -0.188989,0 -0.04454,0.0445 -0.05849,0.21239 0,0.18899 0.341056,-0.13643 0.629962,-0.37798 0.944941,-0.56697"
         style="fill:none;fill-rule:evenodd;stroke:#000000;stroke-width:0.94772422;stroke-linecap:butt;stroke-linejoin:miter;stroke-miterlimit:4;stroke-dasharray:none;stroke-opacity:1" />
    </g>
    <text
       xml:space="preserve"
       style="font-style:italic;font-variant:normal;font-weight:normal;font-stretch:normal;font-size:12.69999981px;line-height:125%;font-family:'Lobster Two';-inkscape-font-specification:'Lobster Two, Italic';font-variant-ligatures:normal;font-variant-caps:normal;font-variant-numeric:normal;font-feature-settings:normal;text-align:start;letter-spacing:0px;word-spacing:0px;writing-mode:lr-tb;text-anchor:start;fill:#000000;fill-opacity:1;stroke:none;stroke-width:0.26458332px;stroke-linecap:butt;stroke-linejoin:miter;stroke-opacity:1"
       x="83.904739"
       y="146.02866"
       id="text838"><tspan
         sodipodi:role="line"
         id="tspan836"
         x="83.904739"
         y="146.02866"
         style="font-style:normal;font-variant:normal;font-weight:normal;font-stretch:normal;font-size:7.76111126px;font-family:Chalkduster;-inkscape-font-specification:'Chalkduster, Normal';font-variant-ligatures:normal;font-variant-caps:normal;font-variant-numeric:normal;font-feature-settings:normal;text-align:start;writing-mode:lr-tb;text-anchor:start;stroke-width:0.26458332px">Contar</tspan></text>
    <text
       xml:space="preserve"
       style="font-style:normal;font-variant:normal;font-weight:normal;font-stretch:normal;font-size:7.76111126px;line-height:125%;font-family:Chalkduster;-inkscape-font-specification:'Chalkduster, Normal';font-variant-ligatures:normal;font-variant-caps:normal;font-variant-numeric:normal;font-feature-settings:normal;text-align:start;letter-spacing:0px;word-spacing:0px;writing-mode:lr-tb;text-anchor:start;fill:#000000;fill-opacity:1;stroke:none;stroke-width:0.26458332px;stroke-linecap:butt;stroke-linejoin:miter;stroke-opacity:1"
       x="69.730629"
       y="112.38877"
       id="text842"><tspan
         sodipodi:role="line"
         id="tspan840"
         x="69.730629"
         y="112.38877"
         style="stroke-width:0.26458332px">Has pulsado:</tspan></text>
    <text
       xml:space="preserve"
       style="font-style:normal;font-variant:normal;font-weight:normal;font-stretch:normal;font-size:7.76111126px;line-height:125%;font-family:Chalkduster;-inkscape-font-specification:'Chalkduster, Normal';font-variant-ligatures:normal;font-variant-caps:normal;font-variant-numeric:normal;font-feature-settings:normal;text-align:start;letter-spacing:0px;word-spacing:0px;writing-mode:lr-tb;text-anchor:start;fill:#000000;fill-opacity:1;stroke:none;stroke-width:0.26458332px;stroke-linecap:butt;stroke-linejoin:miter;stroke-opacity:1"
       x="94.110092"
       y="125.61794"
       id="text846"><tspan
         sodipodi:role="line"
         id="tspan844"
         x="94.110092"
         y="125.61794"
         style="stroke-width:0.26458332px">8</tspan></text>
  </g>
</svg>
